<svg width="40" height="40" viewBox="8 8 24 24" xmlns="http://www.w3.org/2000/svg">
  <rect width="40" height="40" rx="8" fill="#0d6efd" x="0" y="0"/>
  <path d="M12 16h16v2H12v-2zm0-4h10v2H12v-2z" fill="white" opacity="0.3"/>
  <path d="M13 14h14a2 2 0 012 2v10a2 2 0 01-2 2H13a2 2 0 01-2-2V16a2 2 0 012-2z" fill="none" stroke="white" stroke-width="1.5"/>
  <path d="M17 14v-2a2 2 0 012-2h2a2 2 0 012 2v2" fill="none" stroke="white" stroke-width="1.5"/>
  <line x1="11" y1="19" x2="29" y2="19" stroke="white" stroke-width="1.5"/>
</svg>
